<svg xmlns="http://www.w3.org/2000/svg" width="24" height="24" viewBox="0 0 24 24">
    <g fill="none" fill-rule="evenodd">
        <g fill="#7B7A8E" fill-rule="nonzero">
            <g>
                <path d="M14 2c2.21 0 4 1.79 4 4h-2c0-1.105-.895-2-2-2h-4c-1.054 0-1.918.816-1.995 1.85L8 6v2h10c1.105 0 2 .895 2 2v7.641c0 .823-.503 1.561-1.268 1.862l-6 2.358c-.47.185-.993.185-1.464 0l-6-2.358C4.503 19.202 4 18.463 4 17.64V10c0-1.105.895-2 2-2V6c0-2.21 1.79-4 4-4h4zm-2 10c-1.105 0-2 .895-2 2s.895 2 2 2 2-.895 2-2-.895-2-2-2z" transform="translate(-2388.000000, -923.000000) translate(2388.000000, 923.000000)"/>
            </g>
        </g>
    </g>
</svg>
